<svg width="200" height="200" viewBox="0 0 200 200" xmlns="http://www.w3.org/2000/svg">
  <style>
    @keyframes float { 0% { transform: translateY(0px); } 50% { transform: translateY(-10px); } 100% { transform: translateY(0px); } }
    @keyframes pulse { 0% { opacity: 0.5; } 50% { opacity: 1; } 100% { opacity: 0.5; } }
    .floating { animation: float 3s ease-in-out infinite; }
    .glow { animation: pulse 2s ease-in-out infinite; fill: #f39c12; filter: blur(5px); }
  </style>
  <circle class="glow" cx="100" cy="100" r="80" />
  <g class="floating">
    <path d="M100 20 L40 50 V110 C40 150 100 180 100 180 C100 180 160 150 160 110 V50 L100 20Z" fill="#1a3a5f" stroke="#f39c12" stroke-width="5"/>
    <path d="M70 120 C70 120 85 115 100 120 C115 115 130 120 130 120 V85 C130 85 115 80 100 85 C85 80 70 85 70 85 V120" fill="white" />
    <polygon points="100,45 105,60 120,60 108,70 112,85 100,75 88,85 92,70 80,60 95,60" fill="#f39c12" />
    <text x="100" y="160" font-family="Arial" font-size="12" fill="white" text-anchor="middle" font-weight="bold">IMANI</text>
  </g>
</svg>